<svg width="40" height="40" viewBox="0 0 40 40" fill="none" xmlns="http://www.w3.org/2000/svg">
<path fill-rule="evenodd" clip-rule="evenodd" d="M28.7473 23.4604C29.7937 23.4604 30.7811 23.9161 31.5996 24.7684L36.2326 29.4182C37.0849 30.2621 37.5321 31.2663 37.5321 32.3127C37.5321 33.3507 37.0933 34.3634 36.2579 35.2326C35.895 35.6123 35.5237 35.9752 35.1608 36.3212C35.1214 36.3593 35.0822 36.3972 35.0431 36.435C34.5546 36.9075 34.0904 37.3563 33.684 37.8486C33.6798 37.857 33.6735 37.8634 33.6672 37.8697C33.6608 37.876 33.6545 37.8824 33.6503 37.8908C32.3676 39.2832 30.7304 39.9836 28.7811 39.9836C28.6123 39.9836 28.4266 39.9752 28.2494 39.9668C25.3549 39.7811 22.7642 38.6925 20.8233 37.7727C15.7431 35.317 11.2958 31.8317 7.59964 27.4182C4.55323 23.7558 2.51103 20.3381 1.14395 16.6503C0.586984 15.1482 -0.138754 12.8528 0.0637772 10.3887C0.198798 8.86127 0.814832 7.54481 1.895 6.46464L4.7642 3.57013L4.78108 3.55325C5.62496 2.74312 6.62074 2.31274 7.65028 2.31274C8.67981 2.31274 9.65871 2.74312 10.4773 3.55325C11.0258 4.05958 11.5574 4.59966 12.0638 5.12287C12.3169 5.39291 12.587 5.66295 12.8486 5.92455L12.8486 5.92456L15.1524 8.22836C16.9245 10.0005 16.9245 12.2959 15.1524 14.068C15.0342 14.1862 14.9161 14.3064 14.798 14.4267C14.6798 14.5469 14.5617 14.6672 14.4435 14.7853C14.3833 14.8464 14.3229 14.9077 14.2623 14.9691C13.6949 15.545 13.111 16.1375 12.4857 16.7094C13.0005 17.8486 13.7093 18.971 14.7642 20.3043C16.9414 22.9794 19.2115 25.0469 21.7093 26.6334C21.9541 26.7853 22.241 26.9288 22.5447 27.0806L22.5448 27.0807C22.6163 27.1179 22.6888 27.1551 22.762 27.1926C22.9046 27.2658 23.0496 27.3402 23.1946 27.4182L25.8612 24.76C26.7136 23.9077 27.7093 23.4604 28.7473 23.4604ZM33.7837 34.4966C34.0746 34.2138 34.3505 33.9455 34.6207 33.6545C35.4815 32.76 35.4815 31.8739 34.6123 31.0132L29.9625 26.3634L29.9456 26.3465C29.684 26.0596 29.2537 25.7305 28.7304 25.7305C28.1988 25.7305 27.7431 26.0765 27.4562 26.3634L24.5701 29.2495C24.4266 29.3929 23.9878 29.8317 23.2874 29.8317C23.0089 29.8317 22.7389 29.7642 22.452 29.6208C22.4351 29.6123 22.4182 29.6018 22.4013 29.5912C22.3844 29.5807 22.3676 29.5701 22.3507 29.5617C22.106 29.4098 21.8191 29.2663 21.5153 29.1144C21.1777 28.9457 20.8233 28.7684 20.4773 28.549C17.7684 26.836 15.3127 24.5997 12.9836 21.7305L12.9752 21.722C11.6925 20.0933 10.8486 18.7262 10.2494 17.2748L10.2241 17.1988C10.0722 16.7178 9.93719 16.0089 10.6629 15.2832C10.6684 15.2723 10.6774 15.2649 10.6876 15.2565C10.6932 15.2519 10.6991 15.247 10.7051 15.241C11.4393 14.5828 12.1144 13.9077 12.8233 13.1819C12.9861 13.0247 13.1452 12.8638 13.3055 12.7016C13.3862 12.62 13.4671 12.5381 13.549 12.4562C14.4435 11.5617 14.4435 10.7347 13.549 9.84017L11.2452 7.53637C11.1112 7.39822 10.9773 7.26214 10.8443 7.1271C10.7093 6.98995 10.5753 6.85388 10.4435 6.71781C9.92876 6.18616 9.4393 5.68827 8.92454 5.20726L8.89922 5.18194C8.62918 4.9119 8.1988 4.59123 7.66715 4.59123C7.23677 4.59123 6.79795 4.8022 6.38445 5.19038L3.50682 8.06802C2.80639 8.76844 2.42665 9.58701 2.34226 10.5743C2.21568 12.1187 2.5026 13.7558 3.28741 15.857C4.56167 19.3001 6.48572 22.5068 9.36336 25.9752C12.8486 30.1355 17.0427 33.4182 21.8191 35.7305C23.5659 36.5659 25.895 37.5448 28.4013 37.7052C28.5279 37.7136 28.6629 37.7136 28.7895 37.7136C30.106 37.7136 31.1102 37.2832 31.9625 36.3718C32.4857 35.7558 33.0427 35.2073 33.5912 34.6841C33.6561 34.6206 33.7203 34.5583 33.7837 34.4966Z" fill="black"/>
<path d="M21.6082 9.51102C23.8191 9.88232 25.8276 10.9287 27.4309 12.5321C29.0343 14.1355 30.0723 16.1439 30.452 18.3549C30.5449 18.9119 31.0259 19.3 31.5744 19.3C31.6419 19.3 31.701 19.2916 31.7685 19.2832C32.393 19.1819 32.8065 18.5912 32.7052 17.9667C32.2495 15.2916 30.9837 12.8528 29.0512 10.9203C27.1187 8.98781 24.6799 7.72199 22.0048 7.26629C21.3803 7.16502 20.798 7.57853 20.6883 8.19456C20.5786 8.81059 20.9837 9.40975 21.6082 9.51102Z" fill="black"/>
<path d="M39.9372 17.6376C39.1861 13.2326 37.1102 9.22412 33.9203 6.03425C30.7304 2.84437 26.722 0.768423 22.3169 0.0173683C21.7009 -0.0923363 21.1186 0.329605 21.0089 0.945638C20.9076 1.57011 21.3211 2.15239 21.9456 2.26209C25.8781 2.92876 29.4646 4.79374 32.3169 7.63762C35.1692 10.4899 37.0258 14.0764 37.6924 18.0089C37.7853 18.5659 38.2663 18.9541 38.8148 18.9541C38.8823 18.9541 38.9414 18.9456 39.0089 18.9372C39.6249 18.8444 40.0469 18.2537 39.9372 17.6376Z" fill="black"/>
</svg>