<svg width="224" height="230" viewBox="0 0 224 230" fill="none" xmlns="http://www.w3.org/2000/svg">
<mask id="mask0" mask-type="alpha" maskUnits="userSpaceOnUse" x="0" y="0" width="208" height="230">
<path fill-rule="evenodd" clip-rule="evenodd" d="M0 0.302246H207.882V229.628H0V0.302246Z" fill="white"/>
</mask>
<g mask="url(#mask0)">
<path fill-rule="evenodd" clip-rule="evenodd" d="M106.99 25.4216H106.966C105 25.3782 103.076 25.3559 101.247 25.3559H100.92C100.353 25.3559 99.8929 24.8959 99.8929 24.3293C99.8929 23.7621 100.353 23.3021 100.92 23.3021H101.247C103.091 23.3021 105.031 23.3243 107.012 23.3677C107.579 23.3803 108.028 23.8506 108.016 24.4172C108.004 24.9766 107.546 25.4216 106.99 25.4216ZM86.0941 25.9183C85.5639 25.9183 85.1138 25.5113 85.0717 24.9742C85.0259 24.4082 85.4482 23.9138 86.0134 23.8687C87.9793 23.7115 90.0301 23.5851 92.1093 23.4935C92.6654 23.4628 93.1559 23.9078 93.1812 24.475C93.2059 25.041 92.7666 25.5203 92.1991 25.5456C90.1446 25.6347 88.1184 25.76 86.1778 25.9153C86.1495 25.9171 86.1212 25.9183 86.0941 25.9183ZM121.81 26.1538C121.781 26.1538 121.754 26.152 121.726 26.1502C119.749 25.9912 117.719 25.8551 115.694 25.7449C115.127 25.7136 114.693 25.2307 114.724 24.6635C114.754 24.0975 115.225 23.6772 115.806 23.6941C117.848 23.8054 119.896 23.9427 121.89 24.1035C122.456 24.1487 122.878 24.643 122.832 25.2084C122.789 25.7461 122.339 26.1538 121.81 26.1538ZM136.546 27.8572C136.493 27.8572 136.441 27.853 136.389 27.8446C134.423 27.5441 132.41 27.2671 130.407 27.0239C129.843 26.9558 129.443 26.444 129.511 25.881C129.58 25.3174 130.095 24.9236 130.655 24.9856C132.68 25.2325 134.714 25.5107 136.7 25.816C137.261 25.9015 137.646 26.4253 137.56 26.9865C137.482 27.4935 137.044 27.8572 136.546 27.8572ZM71.3933 27.8861C70.9126 27.8861 70.483 27.5459 70.3866 27.0558C70.2781 26.4994 70.6414 25.9605 71.1987 25.8515C73.1526 25.4704 75.1836 25.1283 77.2357 24.8351C77.7924 24.7574 78.3172 25.1458 78.3979 25.707C78.4774 26.2682 78.0876 26.789 77.5261 26.8685C75.5089 27.1557 73.5123 27.4917 71.5922 27.8675C71.5253 27.8801 71.4596 27.8861 71.3933 27.8861ZM151.098 30.7144C151.018 30.7144 150.937 30.7047 150.855 30.6855C148.938 30.2206 146.957 29.7792 144.969 29.3728C144.413 29.2596 144.054 28.7177 144.167 28.1625C144.281 27.6061 144.823 27.2473 145.379 27.3617C147.393 27.7717 149.398 28.2191 151.339 28.6894C151.891 28.8231 152.23 29.3782 152.096 29.9292C151.982 30.3994 151.562 30.7144 151.098 30.7144ZM57.0933 31.7693C56.6715 31.7693 56.2763 31.508 56.1263 31.0895C55.9347 30.5548 56.2124 29.9677 56.7456 29.7756C58.6314 29.0994 60.5973 28.4696 62.5886 27.9024C63.1338 27.7476 63.7026 28.0632 63.858 28.6087C64.0135 29.1536 63.6972 29.7226 63.1513 29.8768C61.2047 30.432 59.2827 31.0485 57.4403 31.7091C57.3252 31.7494 57.2083 31.7693 57.0933 31.7693ZM165.315 34.9227C165.201 34.9227 165.085 34.904 164.972 34.8643C163.103 34.2013 161.179 33.5679 159.252 32.9796C158.71 32.8134 158.404 32.2402 158.57 31.6976C158.736 31.1551 159.309 30.8486 159.853 31.0154C161.808 31.6127 163.762 32.2558 165.658 32.9284C166.193 33.1181 166.473 33.7052 166.284 34.2393C166.134 34.6602 165.738 34.9227 165.315 34.9227ZM43.6686 38.0159C43.3168 38.0159 42.9745 37.8352 42.7823 37.5095C42.495 37.0217 42.6576 36.3925 43.1469 36.1041C44.8899 35.0786 46.713 34.1032 48.5662 33.2042C49.0778 32.9579 49.6917 33.1699 49.9399 33.6793C50.1869 34.1905 49.9743 34.8047 49.464 35.0515C47.6595 35.9265 45.8852 36.876 44.1886 37.8744C44.0253 37.9707 43.8457 38.0159 43.6686 38.0159ZM178.972 40.6887C178.818 40.6887 178.662 40.655 178.515 40.5816C176.747 39.7024 174.912 38.8492 173.062 38.0454C172.542 37.819 172.304 37.2144 172.53 36.6948C172.756 36.1739 173.362 35.9361 173.881 36.1619C175.764 36.9796 177.631 37.8485 179.43 38.7432C179.938 38.9961 180.145 39.6121 179.892 40.1191C179.713 40.4804 179.349 40.6887 178.972 40.6887ZM31.7387 46.7788C31.4592 46.7788 31.1802 46.665 30.9772 46.4416C30.5964 46.0219 30.6283 45.3728 31.0489 44.9916C32.5647 43.6169 34.1553 42.2928 35.7748 41.0561C36.2267 40.7122 36.8701 40.7977 37.2154 41.2481C37.56 41.6985 37.4738 42.3434 37.0226 42.6872C35.4482 43.8897 33.9029 45.1765 32.4292 46.5126C32.2322 46.6902 31.9857 46.7788 31.7387 46.7788ZM21.6344 57.616C21.4103 57.616 21.1843 57.5431 20.9957 57.3932C20.5517 57.0398 20.4782 56.3937 20.8313 55.9499C22.1001 54.356 23.4352 52.7833 24.8005 51.2761C25.1812 50.854 25.8319 50.8245 26.2525 51.2039C26.673 51.5844 26.7049 52.2341 26.3242 52.655C24.9878 54.1302 23.681 55.6687 22.4393 57.2282C22.2363 57.4835 21.9368 57.616 21.6344 57.616ZM13.3206 69.8791C13.1477 69.8791 12.973 69.8358 12.8121 69.7436C12.3193 69.463 12.1476 68.8362 12.429 68.3431C13.4357 66.5794 14.5142 64.8218 15.6342 63.1177C15.9463 62.6438 16.5843 62.5132 17.0573 62.8233C17.5308 63.1346 17.6634 63.7716 17.3519 64.2461C16.2548 65.9128 15.1992 67.6337 14.2135 69.3613C14.0243 69.6931 13.6773 69.8791 13.3206 69.8791ZM6.9933 83.2718C6.87159 83.2718 6.74808 83.2508 6.62758 83.2056C6.09739 83.0039 5.83109 82.4108 6.03293 81.8809C6.75411 79.9824 7.54939 78.0796 8.39469 76.2232C8.63026 75.7078 9.23817 75.4802 9.75631 75.7144C10.2726 75.9498 10.4998 76.558 10.2648 77.0752C9.43759 78.8913 8.65978 80.7537 7.95366 82.6107C7.79762 83.0201 7.40721 83.2718 6.9933 83.2718ZM2.83913 97.4895C2.76985 97.4895 2.70056 97.4822 2.63007 97.4678C2.07458 97.3528 1.7173 96.8097 1.83177 96.2545C2.24267 94.2729 2.72707 92.2677 3.27353 90.2951C3.42475 89.7472 3.99049 89.4287 4.53695 89.5792C5.08401 89.7303 5.40513 90.2957 5.25331 90.8419C4.7195 92.7711 4.24534 94.7323 3.84409 96.6706C3.74347 97.1559 3.31631 97.4895 2.83913 97.4895ZM1.02805 112.185C1.0148 112.185 1.00094 112.185 0.987685 112.185C0.420141 112.162 -0.021484 111.685 0.000808134 111.118C0.0803367 109.092 0.232766 107.035 0.452675 105.002C0.513526 104.438 1.02082 104.031 1.58475 104.091C2.14928 104.153 2.55657 104.659 2.49572 105.223C2.28063 107.209 2.13181 109.22 2.05409 111.198C2.0318 111.751 1.57692 112.185 1.02805 112.185ZM1.69199 126.98C1.1841 126.98 0.742472 126.603 0.674993 126.087C0.614142 125.621 0.556906 125.156 0.503284 124.688C0.323742 123.13 0.184567 121.545 0.090579 119.977C0.0562371 119.412 0.487619 118.926 1.05396 118.891C1.61427 118.86 2.10711 119.289 2.14145 119.854C2.23303 121.385 2.36919 122.932 2.54452 124.455C2.59633 124.912 2.65296 125.366 2.71201 125.819C2.78551 126.382 2.38968 126.897 1.82755 126.971C1.78177 126.977 1.73718 126.98 1.69199 126.98ZM4.9376 141.425C4.50381 141.425 4.10014 141.149 3.95976 140.714C3.33438 138.773 2.77467 136.784 2.29509 134.8C2.16194 134.249 2.50114 133.694 3.05241 133.562C3.6055 133.43 4.15919 133.768 4.29234 134.319C4.75987 136.252 5.30633 138.192 5.91544 140.084C6.08956 140.623 5.79253 141.202 5.2527 141.376C5.14787 141.409 5.04244 141.425 4.9376 141.425ZM10.7366 155.051C10.3702 155.051 10.0154 154.854 9.83042 154.509C8.86523 152.708 7.95607 150.854 7.12946 148.997C6.89871 148.478 7.13127 147.871 7.65001 147.641C8.16755 147.409 8.77606 147.643 9.00621 148.161C9.81355 149.973 10.6998 151.782 11.6415 153.539C11.9096 154.04 11.721 154.662 11.221 154.93C11.0667 155.013 10.9004 155.051 10.7366 155.051ZM18.8087 167.466C18.5014 167.466 18.1972 167.33 17.9953 167.068C16.7398 165.445 15.5318 163.773 14.4051 162.097C14.0882 161.627 14.2135 160.99 14.6841 160.672C15.1546 160.357 15.7933 160.481 16.1102 160.952C17.2121 162.589 18.393 164.225 19.6203 165.812C19.9679 166.261 19.8854 166.906 19.4359 167.252C19.2491 167.396 19.0274 167.466 18.8087 167.466ZM28.7263 178.466C28.4696 178.466 28.2142 178.371 28.0141 178.18C26.5368 176.762 25.0927 175.293 23.7214 173.814C23.3358 173.398 23.3605 172.749 23.7768 172.364C24.1913 171.979 24.8426 172.001 25.2276 172.419C26.573 173.867 27.9888 175.308 29.4378 176.699C29.8469 177.092 29.8596 177.742 29.4673 178.15C29.2655 178.361 28.9956 178.466 28.7263 178.466ZM40.0579 188.011C39.8452 188.011 39.6307 187.945 39.4464 187.809C37.7968 186.585 36.1736 185.32 34.6246 184.047C34.186 183.687 34.1234 183.04 34.4831 182.602C34.8434 182.164 35.4904 182.1 35.929 182.461C37.4521 183.712 39.0475 184.956 40.6706 186.159C41.1261 186.497 41.2219 187.14 40.8839 187.596C40.6821 187.867 40.3724 188.011 40.0579 188.011ZM52.6933 195.802C52.5282 195.802 52.3607 195.763 52.2059 195.679C49.999 194.488 48.1987 193.499 46.8546 192.74C46.3605 192.46 46.187 191.834 46.466 191.341C46.7467 190.846 47.3739 190.674 47.8661 190.952C49.1989 191.705 50.987 192.688 53.1819 193.872C53.6814 194.141 53.8681 194.764 53.5982 195.263C53.4127 195.607 53.0584 195.802 52.6933 195.802Z" fill="#C7CFD4"/>
</g>
<path fill-rule="evenodd" clip-rule="evenodd" d="M223.056 57.4104L188.096 36.2244L179.536 44.9589L223.056 57.4104Z" fill="#C70B2C"/>
<path fill-rule="evenodd" clip-rule="evenodd" d="M188.091 62.319L188.59 45.9248L223.056 57.4102L188.091 62.319Z" fill="#FF4061"/>
<path fill-rule="evenodd" clip-rule="evenodd" d="M188.054 22.6552L223.056 57.4106L188.096 36.2246L188.054 22.6552Z" fill="#FF4061"/>
<path fill-rule="evenodd" clip-rule="evenodd" d="M179.536 44.9591L188.59 45.9253L188.518 48.3059L179.536 44.9591Z" fill="#C70B2C"/>
</svg>