<svg width="193" height="130" viewBox="0 0 193 130" fill="none" xmlns="http://www.w3.org/2000/svg">
<mask id="mask0" mask-type="alpha" maskUnits="userSpaceOnUse" x="0" y="0" width="163" height="130">
<path fill-rule="evenodd" clip-rule="evenodd" d="M0 0.170776H162.691V129.79H0V0.170776Z" fill="white"/>
</mask>
<g mask="url(#mask0)">
<path fill-rule="evenodd" clip-rule="evenodd" d="M83.731 14.3686H83.7126C82.1736 14.3441 80.668 14.3315 79.237 14.3315H78.981C78.5373 14.3315 78.177 14.0715 78.177 13.7513C78.177 13.4307 78.5373 13.1707 78.981 13.1707H79.237C80.6798 13.1707 82.1981 13.1832 83.7484 13.2078C84.1921 13.2149 84.5439 13.4807 84.5345 13.801C84.5246 14.1171 84.1667 14.3686 83.731 14.3686ZM67.378 14.6494C66.963 14.6494 66.6108 14.4194 66.5778 14.1158C66.542 13.7959 66.8725 13.5164 67.3148 13.4909C68.8533 13.4021 70.4584 13.3306 72.0856 13.2789C72.5208 13.2615 72.9046 13.513 72.9244 13.8336C72.9437 14.1536 72.6 14.4245 72.1558 14.4388C70.548 14.4891 68.9623 14.5599 67.4435 14.6477C67.4214 14.6487 67.3992 14.6494 67.378 14.6494ZM95.3293 14.7825C95.3071 14.7825 95.2854 14.7815 95.2637 14.7805C93.7162 14.6906 92.1282 14.6137 90.5429 14.5514C90.0993 14.5337 89.7598 14.2608 89.7838 13.9402C89.8079 13.6202 90.1761 13.3827 90.6306 13.3922C92.2291 13.4552 93.8313 13.5328 95.3925 13.6236C95.8352 13.6492 96.1653 13.9286 96.1294 14.2482C96.096 14.5521 95.7437 14.7825 95.3293 14.7825ZM106.862 15.7453C106.821 15.7453 106.78 15.7429 106.739 15.7382C105.201 15.5683 103.626 15.4118 102.057 15.2743C101.616 15.2358 101.303 14.9465 101.356 14.6283C101.41 14.3098 101.814 14.0872 102.252 14.1222C103.836 14.2618 105.428 14.419 106.983 14.5916C107.422 14.6399 107.723 14.936 107.656 15.2532C107.595 15.5397 107.252 15.7453 106.862 15.7453ZM55.8731 15.7616C55.4968 15.7616 55.1606 15.5694 55.0852 15.2923C55.0003 14.9778 55.2846 14.6732 55.7208 14.6116C57.2499 14.3962 58.8393 14.2029 60.4453 14.0372C60.881 13.9933 61.2917 14.2128 61.3549 14.53C61.4171 14.8472 61.112 15.1416 60.6726 15.1865C59.094 15.3488 57.5314 15.5387 56.0287 15.7511C55.9763 15.7582 55.9249 15.7616 55.8731 15.7616ZM118.25 17.3602C118.188 17.3602 118.125 17.3548 118.06 17.3439C116.56 17.0811 115.01 16.8317 113.454 16.6019C113.019 16.538 112.738 16.2317 112.827 15.9179C112.915 15.6034 113.34 15.4005 113.775 15.4652C115.351 15.697 116.92 15.9499 118.44 16.2157C118.871 16.2912 119.136 16.605 119.032 16.9164C118.942 17.1822 118.614 17.3602 118.25 17.3602ZM44.6817 17.9565C44.3516 17.9565 44.0423 17.8088 43.9249 17.5722C43.775 17.27 43.9923 16.9382 44.4096 16.8296C45.8855 16.4474 47.424 16.0914 48.9824 15.7708C49.4091 15.6834 49.8542 15.8617 49.9758 16.1701C50.0975 16.4781 49.8499 16.7997 49.4228 16.8868C47.8993 17.2006 46.3952 17.5491 44.9533 17.9225C44.8632 17.9453 44.7717 17.9565 44.6817 17.9565ZM129.377 19.7388C129.288 19.7388 129.197 19.7283 129.108 19.7058C127.646 19.3311 126.14 18.9731 124.632 18.6406C124.208 18.5466 123.968 18.2226 124.098 17.916C124.228 17.6093 124.677 17.4361 125.102 17.5304C126.632 17.868 128.161 18.2315 129.646 18.6116C130.064 18.7188 130.283 19.0507 130.135 19.3526C130.018 19.5904 129.708 19.7388 129.377 19.7388ZM34.1754 21.4872C33.9001 21.4872 33.6322 21.385 33.4818 21.2009C33.2569 20.9253 33.3842 20.5696 33.7671 20.4066C35.1312 19.827 36.558 19.2756 38.0084 18.7675C38.4087 18.6283 38.8891 18.7481 39.0834 19.036C39.2767 19.325 39.1103 19.6721 38.7109 19.8117C37.2987 20.3062 35.9101 20.8429 34.5823 21.4072C34.4546 21.4616 34.3141 21.4872 34.1754 21.4872ZM140.065 22.9979C139.944 22.9979 139.823 22.9789 139.708 22.9373C138.324 22.4404 136.887 21.9582 135.44 21.5038C135.033 21.3759 134.846 21.0342 135.023 20.7404C135.2 20.4461 135.674 20.3116 136.081 20.4393C137.555 20.9014 139.015 21.3925 140.423 21.8983C140.821 22.0412 140.983 22.3894 140.785 22.676C140.645 22.8802 140.36 22.9979 140.065 22.9979ZM24.839 26.4401C24.6202 26.4401 24.4019 26.3758 24.243 26.2495C23.945 26.0123 23.97 25.6454 24.2991 25.43C25.4854 24.653 26.7302 23.9046 27.9977 23.2055C28.3513 23.0112 28.8549 23.0595 29.1251 23.3141C29.3948 23.5687 29.3273 23.9332 28.9742 24.1275C27.7421 24.8071 26.5327 25.5344 25.3794 26.2897C25.2252 26.3901 25.0323 26.4401 24.839 26.4401ZM16.9313 32.5655C16.7559 32.5655 16.579 32.5243 16.4315 32.4396C16.0839 32.2398 16.0264 31.8746 16.3027 31.6238C17.2957 30.7229 18.3406 29.8339 19.4091 28.9821C19.7071 28.7435 20.2163 28.7268 20.5454 28.9412C20.8745 29.1563 20.8995 29.5236 20.6015 29.7614C19.5557 30.5953 18.533 31.4648 17.5612 32.3463C17.4023 32.4906 17.168 32.5655 16.9313 32.5655ZM10.4248 39.4968C10.2895 39.4968 10.1528 39.4723 10.0269 39.4202C9.64119 39.2616 9.50681 38.9073 9.72701 38.6286C10.5149 37.6318 11.3589 36.6383 12.2355 35.6752C12.4797 35.4073 12.979 35.3335 13.3492 35.5087C13.7198 35.6847 13.8235 36.0448 13.5797 36.313C12.7211 37.255 11.895 38.2277 11.1236 39.2041C10.9756 39.3916 10.704 39.4968 10.4248 39.4968ZM5.47301 47.0666C5.37777 47.0666 5.28111 47.0547 5.18681 47.0292C4.77187 46.9152 4.56347 46.5799 4.72142 46.2804C5.28582 45.2073 5.90822 44.1319 6.56975 43.0826C6.75412 42.7913 7.22987 42.6626 7.63537 42.795C8.03946 42.9281 8.21722 43.2718 8.03333 43.5642C7.38594 44.5906 6.77722 45.6433 6.22461 46.6929C6.10248 46.9243 5.79694 47.0666 5.47301 47.0666ZM2.22193 55.1027C2.16771 55.1027 2.11348 55.0986 2.05832 55.0904C1.62358 55.0254 1.34397 54.7184 1.43356 54.4046C1.75513 53.2846 2.13423 52.1513 2.56189 51.0363C2.68024 50.7266 3.12299 50.5466 3.55066 50.6316C3.97879 50.7171 4.23011 51.0366 4.11128 51.3453C3.69352 52.4358 3.32244 53.5443 3.00841 54.6398C2.92967 54.9141 2.59537 55.1027 2.22193 55.1027ZM0.804562 63.409C0.794189 63.409 0.783344 63.409 0.772971 63.4086C0.328806 63.396 -0.0168135 63.1261 0.000632453 62.8059C0.0628722 61.6606 0.182165 60.498 0.354267 59.3487C0.40189 59.0302 0.798904 58.8001 1.24024 58.8341C1.68205 58.8688 2.00079 59.1551 1.95317 59.4736C1.78484 60.5964 1.66837 61.7331 1.60755 62.8511C1.5901 63.1636 1.23411 63.409 0.804562 63.409ZM1.32417 71.7711C0.926684 71.7711 0.581065 71.5583 0.528256 71.2663C0.480633 71.0033 0.435839 70.7405 0.393874 70.4757C0.253364 69.5953 0.144444 68.6995 0.0708879 67.8133C0.0440117 67.4937 0.381615 67.2187 0.824837 67.1993C1.26334 67.1819 1.64904 67.4239 1.67592 67.7435C1.74759 68.6086 1.85415 69.4833 1.99136 70.344C2.03191 70.6023 2.07623 70.8589 2.12244 71.1149C2.17997 71.4334 1.87018 71.7244 1.43026 71.7659C1.39443 71.7697 1.35953 71.7711 1.32417 71.7711ZM3.86421 79.9358C3.52472 79.9358 3.20881 79.7795 3.09895 79.5338C2.60951 78.4369 2.17148 77.3128 1.79615 76.1914C1.69195 75.88 1.95741 75.5662 2.38885 75.4913C2.8217 75.4168 3.25502 75.6077 3.35922 75.9191C3.72511 77.0119 4.15278 78.1085 4.62948 79.1778C4.76574 79.4828 4.53329 79.8095 4.11081 79.9079C4.02877 79.9269 3.94625 79.9358 3.86421 79.9358ZM8.40252 87.6376C8.11585 87.6376 7.83812 87.5263 7.69337 87.3313C6.93801 86.3134 6.22649 85.2651 5.57958 84.2155C5.39899 83.9225 5.58099 83.5791 5.98696 83.4491C6.39199 83.318 6.86822 83.4501 7.04834 83.7431C7.68017 84.7672 8.37376 85.7899 9.11074 86.783C9.32056 87.0662 9.17298 87.4178 8.78162 87.5689C8.66091 87.6158 8.53078 87.6376 8.40252 87.6376ZM14.7199 94.6547C14.4794 94.6547 14.2413 94.5778 14.0833 94.4294C13.1007 93.5122 12.1553 92.5671 11.2736 91.6202C11.0256 91.3544 11.1236 90.994 11.4919 90.8147C11.8601 90.6367 12.3599 90.7068 12.608 90.9726C13.4703 91.8983 14.3945 92.8227 15.355 93.7198C15.627 93.9733 15.5625 94.3382 15.2107 94.5339C15.0645 94.6152 14.891 94.6547 14.7199 94.6547ZM22.4814 100.872C22.2806 100.872 22.0807 100.819 21.9241 100.71C20.768 99.9088 19.6377 99.0784 18.5646 98.2429C18.2628 98.0077 18.2821 97.6408 18.608 97.423C18.9324 97.2052 19.4421 97.2181 19.7434 97.454C20.7962 98.2728 21.9043 99.0872 23.0383 99.8731C23.3585 100.095 23.3684 100.463 23.0614 100.694C22.9034 100.812 22.6922 100.872 22.4814 100.872ZM31.3497 106.267C31.1832 106.267 31.0154 106.23 30.8711 106.153C29.5801 105.461 28.3098 104.746 27.0975 104.027C26.7543 103.823 26.7052 103.457 26.9867 103.21C27.2687 102.962 27.7751 102.926 28.1184 103.13C29.3104 103.837 30.5589 104.54 31.8292 105.22C32.1856 105.411 32.2606 105.775 31.9961 106.032C31.8381 106.185 31.5958 106.267 31.3497 106.267ZM41.2382 110.671C41.109 110.671 40.978 110.649 40.8568 110.601C39.1296 109.928 37.7207 109.369 36.6688 108.94C36.2822 108.782 36.1464 108.428 36.3647 108.149C36.5844 107.869 37.0752 107.772 37.4605 107.93C38.5035 108.355 39.9029 108.91 41.6206 109.58C42.0115 109.732 42.1577 110.084 41.9464 110.366C41.8012 110.56 41.524 110.671 41.2382 110.671Z" fill="#C7CFD4"/>
</g>
<path fill-rule="evenodd" clip-rule="evenodd" d="M192.52 40.7552L157.56 19.5692L149 28.3037L192.52 40.7552Z" fill="#C70B2C"/>
<path fill-rule="evenodd" clip-rule="evenodd" d="M157.555 45.6638L158.054 29.2697L192.52 40.755L157.555 45.6638Z" fill="#FF4061"/>
<path fill-rule="evenodd" clip-rule="evenodd" d="M157.518 6L192.52 40.7555L157.56 19.5695L157.518 6Z" fill="#FF4061"/>
<path fill-rule="evenodd" clip-rule="evenodd" d="M149 28.304L158.054 29.2701L157.982 31.6507L149 28.304Z" fill="#C70B2C"/>
</svg>